<svg className='h-9 object-contain' viewBox="0 0 771 382" fill="none" xmlns="http://www.w3.org/2000/svg">
              <path d="M119.891 231.914C112.273 231.914 106.18 230.137 101.609 226.582C97.0391 223.027 93.4844 218.288 90.9453 212.363C88.5755 206.608 86.9674 200.007 86.1211 192.559C85.2747 185.111 84.6823 177.493 84.3438 169.707C84.1745 161.921 84.0052 154.388 83.8359 147.109C83.8359 139.661 83.3281 133.145 82.3125 127.559C81.2969 121.973 79.6042 117.572 77.2344 114.355C75.0339 110.97 71.5638 109.531 66.8242 110.039C65.6393 112.24 63.862 115.54 61.4922 119.941C59.2917 124.342 56.668 129.336 53.6211 134.922C50.5742 140.508 47.3581 146.432 43.9727 152.695C40.7565 158.958 37.625 164.883 34.5781 170.469C31.5312 176.055 28.7383 181.133 26.1992 185.703C23.8294 190.104 22.0521 193.405 20.8672 195.605C19.513 197.975 18.582 199.837 18.0742 201.191C17.5664 202.376 16.974 203.392 16.2969 204.238C15.7891 204.915 15.0273 205.339 14.0117 205.508C13.1654 205.677 11.8112 205.762 9.94922 205.762C6.5638 205.762 4.19401 205.254 2.83984 204.238C1.48568 203.053 0.808594 200.768 0.808594 197.383C3.6862 186.549 7.49479 175.801 12.2344 165.137C17.1432 154.303 22.5599 143.639 28.4844 133.145C34.4089 122.48 40.6719 111.986 47.2734 101.66C53.875 91.1654 60.3919 80.8398 66.8242 70.6836C70.8867 64.5898 75.6263 57.5651 81.043 49.6094C86.4596 41.4844 92.4688 33.8672 99.0703 26.7578C105.841 19.4792 113.12 13.3854 120.906 8.47656C128.862 3.56771 137.326 1.11328 146.297 1.11328C149.513 0.94401 152.475 1.45182 155.184 2.63672C158.061 3.65234 160.431 5.26042 162.293 7.46094C164.155 9.66146 165.509 12.2005 166.355 15.0781C167.202 17.9557 167.286 21.0872 166.609 24.4727C166.609 32.7669 164.832 40.8073 161.277 48.5938C157.892 56.2109 153.576 63.3203 148.328 69.9219C143.081 76.5234 137.41 82.5326 131.316 87.9492C125.392 93.3659 119.806 98.0208 114.559 101.914C109.311 105.807 104.91 108.939 101.355 111.309C97.9701 113.509 96.2773 114.694 96.2773 114.863C96.2773 116.895 96.2773 120.788 96.2773 126.543C96.4466 132.129 96.7005 138.561 97.0391 145.84C97.5469 153.118 98.224 160.82 99.0703 168.945C99.9167 176.901 101.017 184.434 102.371 191.543C103.895 198.483 105.757 204.408 107.957 209.316C110.327 214.225 113.12 217.272 116.336 218.457C116.844 218.626 118.029 218.88 119.891 219.219C121.753 219.557 123.784 219.896 125.984 220.234C128.354 220.742 130.47 221.081 132.332 221.25C134.363 221.589 135.633 221.842 136.141 222.012C136.479 222.181 137.072 222.689 137.918 223.535C138.764 224.382 139.272 224.974 139.441 225.312C135.548 228.359 132.332 230.221 129.793 230.898C127.254 231.576 123.953 231.914 119.891 231.914ZM76.4727 87.6953C76.4727 90.2344 76.8958 92.181 77.7422 93.5352C78.5885 94.7201 79.7734 95.5664 81.2969 96.0742C82.8203 96.582 84.513 96.9206 86.375 97.0898C88.4062 97.0898 90.5221 97.0898 92.7227 97.0898C99.4935 97.0898 106.264 94.7201 113.035 89.9805C119.806 85.0716 125.9 79.1471 131.316 72.207C136.902 65.0977 141.388 57.5651 144.773 49.6094C148.159 41.6536 149.852 34.6289 149.852 28.5352C149.852 26.8424 149.852 25.1497 149.852 23.457C149.852 21.7643 149.682 20.2409 149.344 18.8867C149.005 17.3633 148.328 16.1784 147.312 15.332C146.297 14.4857 144.689 14.0625 142.488 14.0625C138.595 14.0625 134.279 15.4167 129.539 18.125C124.799 20.6641 119.975 24.0495 115.066 28.2812C110.158 32.513 105.333 37.3372 100.594 42.7539C96.0234 48.0013 91.9609 53.418 88.4062 59.0039C84.8516 64.4206 81.974 69.668 79.7734 74.7461C77.5729 79.8242 76.4727 84.1406 76.4727 87.6953ZM150.613 191.797C147.736 185.365 146.466 179.102 146.805 173.008C147.143 166.745 148.497 160.905 150.867 155.488C153.406 149.902 156.622 144.909 160.516 140.508C164.578 135.938 168.895 132.044 173.465 128.828C178.035 125.443 182.605 122.904 187.176 121.211C191.915 119.518 196.062 118.841 199.617 119.18C203.172 119.349 205.965 120.618 207.996 122.988C210.027 125.358 210.704 128.997 210.027 133.906C210.027 140.508 207.911 146.263 203.68 151.172C199.617 156.081 195.047 160.482 189.969 164.375C185.06 168.268 180.49 171.823 176.258 175.039C172.195 178.086 170.164 180.964 170.164 183.672C170.164 185.195 171.01 186.38 172.703 187.227C174.565 188.073 176.681 188.75 179.051 189.258C181.421 189.596 183.79 189.85 186.16 190.02C188.53 190.189 190.223 190.358 191.238 190.527C207.15 187.142 219.083 185.111 227.039 184.434C234.995 183.587 239.988 183.672 242.02 184.688C244.051 185.534 243.628 186.973 240.75 189.004C238.042 190.866 233.81 192.897 228.055 195.098C222.299 197.129 215.613 198.991 207.996 200.684C200.379 202.376 192.846 203.392 185.398 203.73C177.951 203.9 171.01 203.138 164.578 201.445C158.315 199.753 153.66 196.536 150.613 191.797ZM195.047 133.906C191.661 133.906 188.445 134.837 185.398 136.699C182.352 138.561 179.559 140.931 177.02 143.809C174.65 146.517 172.618 149.564 170.926 152.949C169.233 156.165 167.964 159.212 167.117 162.09C167.456 162.259 167.71 162.344 167.879 162.344H168.641C171.01 162.344 173.719 161.328 176.766 159.297C179.812 157.266 182.69 154.811 185.398 151.934C188.107 148.887 190.392 145.755 192.254 142.539C194.116 139.323 195.047 136.445 195.047 133.906ZM237.703 191.797C234.826 185.365 233.556 179.102 233.895 173.008C234.233 166.745 235.587 160.905 237.957 155.488C240.496 149.902 243.712 144.909 247.605 140.508C251.668 135.938 255.984 132.044 260.555 128.828C265.125 125.443 269.695 122.904 274.266 121.211C279.005 119.518 283.152 118.841 286.707 119.18C290.262 119.349 293.055 120.618 295.086 122.988C297.117 125.358 297.794 128.997 297.117 133.906C297.117 140.508 295.001 146.263 290.77 151.172C286.707 156.081 282.137 160.482 277.059 164.375C272.15 168.268 267.579 171.823 263.348 175.039C259.285 178.086 257.254 180.964 257.254 183.672C257.254 185.195 258.1 186.38 259.793 187.227C261.655 188.073 263.771 188.75 266.141 189.258C268.51 189.596 270.88 189.85 273.25 190.02C275.62 190.189 277.312 190.358 278.328 190.527C294.24 187.142 306.173 185.111 314.129 184.434C322.085 183.587 327.078 183.672 329.109 184.688C331.141 185.534 330.717 186.973 327.84 189.004C325.132 190.866 320.9 192.897 315.145 195.098C309.389 197.129 302.703 198.991 295.086 200.684C287.469 202.376 279.936 203.392 272.488 203.73C265.04 203.9 258.1 203.138 251.668 201.445C245.405 199.753 240.75 196.536 237.703 191.797ZM282.137 133.906C278.751 133.906 275.535 134.837 272.488 136.699C269.441 138.561 266.648 140.931 264.109 143.809C261.74 146.517 259.708 149.564 258.016 152.949C256.323 156.165 255.053 159.212 254.207 162.09C254.546 162.259 254.799 162.344 254.969 162.344H255.73C258.1 162.344 260.809 161.328 263.855 159.297C266.902 157.266 269.78 154.811 272.488 151.934C275.197 148.887 277.482 145.755 279.344 142.539C281.206 139.323 282.137 136.445 282.137 133.906ZM327.078 193.574C327.078 193.236 327.078 192.897 327.078 192.559C327.078 192.22 327.163 191.966 327.332 191.797C332.241 186.38 337.404 181.217 342.82 176.309C348.406 171.23 354.246 166.491 360.34 162.09L416.199 96.3281H412.645C409.09 96.3281 405.62 96.7513 402.234 97.5977C398.849 98.2747 395.464 99.0365 392.078 99.8828C388.693 100.729 385.307 101.576 381.922 102.422C378.536 103.099 375.066 103.438 371.512 103.438C366.603 102.76 363.302 101.745 361.609 100.391C360.086 99.0365 359.663 97.5977 360.34 96.0742C361.017 94.3815 362.54 92.6888 364.91 90.9961C367.28 89.3034 370.073 87.8646 373.289 86.6797C376.505 85.3255 379.891 84.3945 383.445 83.8867C387 83.2096 390.216 83.0404 393.094 83.3789C399.695 81.6862 405.366 80.6706 410.105 80.332C415.014 79.8242 420.516 79.5703 426.609 79.5703C431.518 79.5703 435.411 80.5013 438.289 82.3633C441.167 84.056 442.605 87.6953 442.605 93.2812C442.605 94.4661 441.082 97.0052 438.035 100.898C435.158 104.622 431.434 109.193 426.863 114.609C422.293 119.857 417.215 125.527 411.629 131.621C406.212 137.715 400.88 143.639 395.633 149.395C390.555 155.15 385.984 160.397 381.922 165.137C377.859 169.707 374.982 173.092 373.289 175.293C373.458 175.632 373.966 176.224 374.812 177.07C375.659 177.917 376.251 178.509 376.59 178.848C381.16 180.371 386.238 181.471 391.824 182.148C397.579 182.656 403.335 182.995 409.09 183.164C414.845 183.164 420.346 183.079 425.594 182.91C430.841 182.572 435.327 182.233 439.051 181.895C440.405 182.572 441.336 183.333 441.844 184.18C442.352 184.857 442.605 185.703 442.605 186.719C442.605 190.273 440.997 192.897 437.781 194.59C434.565 196.283 430.926 197.467 426.863 198.145C422.801 198.652 418.823 198.906 414.93 198.906C411.036 198.737 408.413 198.652 407.059 198.652C402.996 198.652 399.103 198.314 395.379 197.637C391.655 196.96 387.931 196.198 384.207 195.352C380.483 194.336 376.759 193.49 373.035 192.812C369.48 192.135 365.757 191.797 361.863 191.797C359.155 191.797 356.785 192.559 354.754 194.082C352.892 195.436 351.03 196.96 349.168 198.652C347.475 200.176 345.783 201.699 344.09 203.223C342.566 204.577 340.789 205.254 338.758 205.254C335.88 205.254 333.172 203.984 330.633 201.445C328.263 198.906 327.078 196.283 327.078 193.574ZM435.496 281.68C440.913 272.878 447.176 265.007 454.285 258.066C461.395 251.296 468.673 244.863 476.121 238.77C483.738 232.676 491.271 226.751 498.719 220.996C506.167 215.241 513.022 209.062 519.285 202.461C525.717 195.859 531.219 188.581 535.789 180.625C540.359 172.5 543.491 163.105 545.184 152.441C545.184 152.103 545.099 151.595 544.93 150.918C544.93 150.072 544.93 149.479 544.93 149.141C541.036 153.711 536.297 158.874 530.711 164.629C525.294 170.384 519.37 175.801 512.938 180.879C506.674 185.957 500.073 190.189 493.133 193.574C486.193 196.96 479.422 198.652 472.82 198.652C471.128 198.652 468.927 198.568 466.219 198.398C463.68 198.06 461.141 197.467 458.602 196.621C456.062 195.775 453.862 194.59 452 193.066C450.138 191.543 449.207 189.512 449.207 186.973C449.207 184.772 449.799 181.387 450.984 176.816C452.169 172.246 453.777 167.168 455.809 161.582C457.84 155.996 460.125 150.326 462.664 144.57C465.203 138.815 467.911 133.568 470.789 128.828C473.667 124.089 476.46 120.195 479.168 117.148C482.046 114.102 484.669 112.578 487.039 112.578C489.409 112.578 491.44 113.086 493.133 114.102C494.826 115.117 495.672 116.81 495.672 119.18C495.672 123.411 494.148 127.643 491.102 131.875C488.055 136.107 484.754 140.677 481.199 145.586C477.645 150.326 474.344 155.488 471.297 161.074C468.25 166.66 466.727 173.008 466.727 180.117C477.898 180.117 487.97 177.832 496.941 173.262C505.913 168.522 514.038 162.682 521.316 155.742C528.595 148.802 535.027 141.27 540.613 133.145C546.199 125.02 551.108 117.487 555.34 110.547C559.741 103.607 563.465 97.8516 566.512 93.2812C569.728 88.5417 572.436 86.1719 574.637 86.1719C577.853 86.1719 579.715 87.1875 580.223 89.2188C580.9 91.0807 581.238 93.4505 581.238 96.3281C579.715 101.576 577.599 107.754 574.891 114.863C572.182 121.803 569.389 129.167 566.512 136.953C563.803 144.57 561.264 152.188 558.895 159.805C556.694 167.422 555.255 174.362 554.578 180.625C554.578 180.794 554.578 181.048 554.578 181.387C554.747 181.725 554.832 181.979 554.832 182.148C557.879 181.133 560.757 179.355 563.465 176.816C566.173 174.277 568.797 171.738 571.336 169.199C574.044 166.491 576.753 164.121 579.461 162.09C582.169 159.889 584.962 158.789 587.84 158.789C588.009 158.789 588.602 159.974 589.617 162.344C590.802 164.714 590.802 167.591 589.617 170.977C588.094 172.161 585.301 174.193 581.238 177.07C577.345 179.948 573.198 182.995 568.797 186.211C564.396 189.258 560.249 192.305 556.355 195.352C552.462 198.229 549.754 200.43 548.23 201.953C545.861 204.323 543.406 207.708 540.867 212.109C538.328 216.51 535.789 221.419 533.25 226.836C530.711 232.422 528.172 238.262 525.633 244.355C523.263 250.449 520.893 256.374 518.523 262.129C516.154 268.053 513.784 273.47 511.414 278.379C509.214 283.457 507.182 287.604 505.32 290.82C504.474 292.174 502.697 294.798 499.988 298.691C497.449 302.754 494.572 307.07 491.355 311.641C488.309 316.211 485.262 320.527 482.215 324.59C479.337 328.822 477.137 331.784 475.613 333.477C474.936 334.323 473.074 336.27 470.027 339.316C466.98 342.533 463.51 346.003 459.617 349.727C455.893 353.62 452.169 357.428 448.445 361.152C444.552 364.876 441.59 367.669 439.559 369.531C437.527 370.716 434.819 372.155 431.434 373.848C428.048 375.71 424.578 377.233 421.023 378.418C417.299 379.603 413.745 380.365 410.359 380.703C406.805 381.042 403.927 380.28 401.727 378.418C399.526 376.725 398.257 373.763 397.918 369.531C397.41 365.469 398.341 359.629 400.711 352.012C402.911 344.564 406.805 335.085 412.391 323.574C417.977 312.064 425.678 298.099 435.496 281.68ZM515.223 227.09C514.884 227.09 514.292 227.174 513.445 227.344C512.768 227.682 512.26 227.936 511.922 228.105C511.583 228.444 510.822 229.036 509.637 229.883C508.452 230.729 507.098 231.66 505.574 232.676C504.22 233.691 502.866 234.707 501.512 235.723C500.327 236.738 499.48 237.5 498.973 238.008C494.233 241.393 488.816 246.133 482.723 252.227C476.629 258.49 470.281 265.345 463.68 272.793C457.247 280.41 450.9 288.366 444.637 296.66C438.374 305.124 432.788 313.164 427.879 320.781C422.801 328.568 418.738 335.677 415.691 342.109C412.645 348.542 411.036 353.704 410.867 357.598C410.698 361.491 412.306 363.776 415.691 364.453C419.077 365.13 424.832 363.522 432.957 359.629C434.65 358.105 437.104 355.82 440.32 352.773C443.367 349.896 446.414 346.849 449.461 343.633C452.677 340.586 455.555 337.708 458.094 335C460.633 332.461 462.156 330.853 462.664 330.176C463.51 328.991 464.865 327.129 466.727 324.59C468.589 322.051 470.62 319.173 472.82 315.957C475.021 312.741 477.306 309.355 479.676 305.801C482.046 302.246 484.246 298.776 486.277 295.391C488.478 292.174 490.34 289.297 491.863 286.758C493.556 284.219 494.741 282.272 495.418 280.918C496.941 278.21 498.803 274.316 501.004 269.238C503.374 264.329 505.574 259.167 507.605 253.75C509.637 248.503 511.414 243.424 512.938 238.516C514.461 233.607 515.223 229.798 515.223 227.09ZM588.855 191.797C585.978 185.365 584.708 179.102 585.047 173.008C585.385 166.745 586.74 160.905 589.109 155.488C591.648 149.902 594.865 144.909 598.758 140.508C602.82 135.938 607.137 132.044 611.707 128.828C616.277 125.443 620.848 122.904 625.418 121.211C630.158 119.518 634.305 118.841 637.859 119.18C641.414 119.349 644.207 120.618 646.238 122.988C648.27 125.358 648.947 128.997 648.27 133.906C648.27 140.508 646.154 146.263 641.922 151.172C637.859 156.081 633.289 160.482 628.211 164.375C623.302 168.268 618.732 171.823 614.5 175.039C610.438 178.086 608.406 180.964 608.406 183.672C608.406 185.195 609.253 186.38 610.945 187.227C612.807 188.073 614.923 188.75 617.293 189.258C619.663 189.596 622.033 189.85 624.402 190.02C626.772 190.189 628.465 190.358 629.48 190.527C645.392 187.142 657.326 185.111 665.281 184.434C673.237 183.587 678.23 183.672 680.262 184.688C682.293 185.534 681.87 186.973 678.992 189.004C676.284 190.866 672.052 192.897 666.297 195.098C660.542 197.129 653.855 198.991 646.238 200.684C638.621 202.376 631.089 203.392 623.641 203.73C616.193 203.9 609.253 203.138 602.82 201.445C596.557 199.753 591.902 196.536 588.855 191.797ZM633.289 133.906C629.904 133.906 626.688 134.837 623.641 136.699C620.594 138.561 617.801 140.931 615.262 143.809C612.892 146.517 610.861 149.564 609.168 152.949C607.475 156.165 606.206 159.212 605.359 162.09C605.698 162.259 605.952 162.344 606.121 162.344H606.883C609.253 162.344 611.961 161.328 615.008 159.297C618.055 157.266 620.932 154.811 623.641 151.934C626.349 148.887 628.634 145.755 630.496 142.539C632.358 139.323 633.289 136.445 633.289 133.906ZM675.945 191.797C673.068 185.365 671.798 179.102 672.137 173.008C672.475 166.745 673.829 160.905 676.199 155.488C678.738 149.902 681.954 144.909 685.848 140.508C689.91 135.938 694.227 132.044 698.797 128.828C703.367 125.443 707.938 122.904 712.508 121.211C717.247 119.518 721.395 118.841 724.949 119.18C728.504 119.349 731.297 120.618 733.328 122.988C735.359 125.358 736.036 128.997 735.359 133.906C735.359 140.508 733.243 146.263 729.012 151.172C724.949 156.081 720.379 160.482 715.301 164.375C710.392 168.268 705.822 171.823 701.59 175.039C697.527 178.086 695.496 180.964 695.496 183.672C695.496 185.195 696.342 186.38 698.035 187.227C699.897 188.073 702.013 188.75 704.383 189.258C706.753 189.596 709.122 189.85 711.492 190.02C713.862 190.189 715.555 190.358 716.57 190.527C732.482 187.142 744.415 185.111 752.371 184.434C760.327 183.587 765.32 183.672 767.352 184.688C769.383 185.534 768.96 186.973 766.082 189.004C763.374 190.866 759.142 192.897 753.387 195.098C747.632 197.129 740.945 198.991 733.328 200.684C725.711 202.376 718.178 203.392 710.73 203.73C703.283 203.9 696.342 203.138 689.91 201.445C683.647 199.753 678.992 196.536 675.945 191.797ZM720.379 133.906C716.993 133.906 713.777 134.837 710.73 136.699C707.684 138.561 704.891 140.931 702.352 143.809C699.982 146.517 697.951 149.564 696.258 152.949C694.565 156.165 693.296 159.212 692.449 162.09C692.788 162.259 693.042 162.344 693.211 162.344H693.973C696.342 162.344 699.051 161.328 702.098 159.297C705.145 157.266 708.022 154.811 710.73 151.934C713.439 148.887 715.724 145.755 717.586 142.539C719.448 139.323 720.379 136.445 720.379 133.906Z" fill="#318DB2" />
            </svg>